<svg xmlns="http://www.w3.org/2000/svg" viewBox="0 0 182 140" fill="none">
  <title>获客罗盘产品标志</title>
  <path d="M14 124c22 0 34-18 34-41V49c0-22 17-37 38-37 15 0 25 9 30 23" stroke="#F23B49" stroke-width="11" stroke-linecap="round" stroke-linejoin="round"/>
  <path d="M116 35c7-11 16-16 27-16 14 0 25 12 25 27s-11 27-25 27h-11" stroke="#F23B49" stroke-width="11" stroke-linecap="round" stroke-linejoin="round"/>
  <path d="M116 35v89" stroke="#F23B49" stroke-width="11" stroke-linecap="round"/>
  <circle cx="84" cy="53" r="6" fill="#F23B49"/>
  <path d="m157 29-10 20-13 12 8-22 15-10Z" fill="#F23B49"/>
  <path d="m134 61 8-22 5 10-13 12Z" fill="#808080"/>
  <circle cx="145" cy="46" r="3.5" fill="#fff"/>
</svg>
